<?xml version="1.0" standalone="no"?>
<!DOCTYPE svg PUBLIC "-//W3C//DTD SVG 20010904//EN"
 "http://www.w3.org/TR/2001/REC-SVG-20010904/DTD/svg10.dtd">
<svg version="1.0" xmlns="http://www.w3.org/2000/svg"
 width="1379.000000pt" height="1379.000000pt" viewBox="0 0 1379.000000 1379.000000"
 preserveAspectRatio="xMidYMid meet">
<metadata>
Created by potrace 1.11, written by Peter Selinger 2001-2013
</metadata>
<g transform="translate(0.000000,1379.000000) scale(0.100000,-0.100000)"
fill="#000000" stroke="none">
<path d="M50 6875 l0 -2865 340 0 340 0 2 1268 3 1267 805 3 c847 3 1039 -3
1213 -39 245 -50 425 -162 518 -324 85 -146 116 -352 129 -840 17 -660 68
-989 197 -1277 l26 -58 353 0 354 0 0 82 0 81 -40 34 c-49 42 -103 150 -130
258 -33 137 -50 345 -60 760 -11 411 -26 618 -60 786 -80 395 -239 645 -485
765 -50 24 -98 44 -106 44 -8 0 -23 6 -33 13 -16 12 -10 16 56 42 480 186 719
494 799 1030 22 145 17 502 -9 645 -65 360 -205 595 -466 784 -285 206 -568
313 -985 370 -205 29 -511 36 -1643 36 l-1118 0 0 -2865z m2651 2250 c258 -27
449 -79 582 -156 53 -32 78 -55 118 -112 133 -188 195 -374 206 -619 27 -573
-297 -951 -918 -1070 -111 -21 -139 -22 -1036 -25 l-923 -4 0 1001 0 1000 918
0 c730 0 945 -3 1053 -15z"/>
<path d="M5190 6875 l0 -2865 1835 0 1835 0 0 300 0 300 -1495 0 -1495 0 0
2565 0 2565 -340 0 -340 0 0 -2865z"/>
<path d="M9450 6876 l0 -2866 1228 0 c1436 0 1534 4 1849 80 702 169 1089 613
1164 1337 15 147 7 469 -15 588 -55 292 -186 538 -392 735 -181 174 -371 268
-611 304 l-88 13 60 8 c276 36 509 215 655 504 81 160 122 321 141 548 19 226
-12 492 -78 678 -174 484 -579 778 -1223 884 -255 42 -308 43 -1517 48 l-1173
5 0 -2866z m2374 2240 c239 -31 422 -75 539 -130 256 -119 387 -337 404 -671
10 -209 -33 -423 -116 -570 -155 -276 -482 -426 -1012 -464 -79 -6 -451 -11
-826 -11 l-683 0 0 936 0 935 778 -4 c669 -3 796 -6 916 -21z m131 -2459 c648
-78 929 -267 1038 -695 19 -77 22 -113 22 -317 0 -252 -10 -325 -65 -478 -127
-347 -410 -496 -1045 -547 -66 -5 -492 -10 -947 -10 l-828 0 0 1036 0 1036
848 -5 c685 -4 872 -8 977 -20z"/>
</g>
</svg>
